<?xml version="1.0" encoding="UTF-8" standalone="no"?>
<svg width="22px" height="18px" viewBox="0 0 22 18" version="1.1" xmlns="http://www.w3.org/2000/svg" xmlns:xlink="http://www.w3.org/1999/xlink">
    <!-- Generator: Sketch 39.1 (31720) - http://www.bohemiancoding.com/sketch -->
    <title>LinkedIn</title>
    <desc>Created with Sketch.</desc>
    <defs></defs>
    <g id="Homepage" stroke="none" stroke-width="1" fill="none" fill-rule="evenodd">
        <g id="iPhone-6" transform="translate(-199.000000, -613.000000)" fill="#0B0B0A">
            <path d="M221,631 L216.1377,631 L216.1377,624.67228 C216.1377,623.016008 215.377117,621.885317 213.70461,621.885317 C212.425329,621.885317 211.713899,622.648332 211.382761,623.383684 C211.258584,623.647628 211.277987,624.015304 211.277987,624.38298 L211.277987,631 L206.46096,631 C206.46096,631 206.523048,619.791061 206.46096,618.772171 L211.277987,618.772171 L211.277987,620.691234 C211.562559,619.852148 213.101834,618.654607 215.558208,618.654607 C218.605715,618.654607 221,620.41346 221,624.200871 L221,631 L221,631 Z M201.589605,617.242684 L201.558561,617.242684 C200.00635,617.242684 199,616.307934 199,615.123071 C199,613.915157 200.036101,613 201.619356,613 C203.201317,613 204.174036,613.912851 204.20508,615.119613 C204.20508,616.304476 203.201317,617.242684 201.589605,617.242684 L201.589605,617.242684 L201.589605,617.242684 Z M199.554915,618.772171 L203.842897,618.772171 L203.842897,631 L199.554915,631 L199.554915,618.772171 L199.554915,618.772171 Z" id="LinkedIn"></path>
        </g>
    </g>
</svg>