<?xml version="1.0" encoding="UTF-8" standalone="no"?>
<svg width="22px" height="18px" viewBox="0 0 22 18" version="1.1" xmlns="http://www.w3.org/2000/svg" xmlns:xlink="http://www.w3.org/1999/xlink">
    <!-- Generator: Sketch 39.1 (31720) - http://www.bohemiancoding.com/sketch -->
    <title>Twitter</title>
    <desc>Created with Sketch.</desc>
    <defs></defs>
    <g id="Homepage" stroke="none" stroke-width="1" fill="none" fill-rule="evenodd">
        <g id="iPhone-6" transform="translate(-165.000000, -613.000000)" fill="#0B0B0A">
            <path d="M184.408347,615.845937 C185.34067,615.28429 186.056054,614.393716 186.393086,613.332828 C185.520162,613.852871 184.555556,614.231203 183.525092,614.43402 C182.703821,613.551246 181.530023,613 180.230968,613 C177.740036,613 175.719141,615.03467 175.719141,617.543879 C175.719141,617.900108 175.75788,618.245937 175.835358,618.578765 C172.084111,618.388949 168.758995,616.581798 166.53149,613.829469 C166.142807,614.502925 165.920702,615.28429 165.920702,616.11636 C165.920702,617.692091 166.717439,619.083207 167.928685,619.898375 C167.190057,619.876273 166.492751,619.669556 165.883254,619.331528 L165.883254,619.387432 C165.883254,621.589816 167.439279,623.426869 169.505371,623.842904 C169.127018,623.949512 168.728004,624.002817 168.316077,624.002817 C168.025533,624.002817 167.741445,623.975515 167.466397,623.92221 C168.041028,625.726761 169.706815,627.04117 171.682515,627.076273 C170.138111,628.295775 168.19082,629.022535 166.07695,629.022535 C165.712802,629.022535 165.352527,629.001733 165,628.96013 C166.997652,630.247237 169.371075,631 171.918824,631 C180.221929,631 184.760873,624.076923 184.760873,618.071723 C184.760873,617.874106 184.756999,617.67649 184.749252,617.482774 C185.631214,616.84182 186.39696,616.042254 187,615.130878 C185.704173,615.488407 185.321301,615.736728 184.408347,615.845937 Z" id="Twitter"></path>
        </g>
    </g>
</svg>